<?xml version="1.0" encoding="UTF-8" standalone="no"?><svg xmlns="http://www.w3.org/2000/svg" xmlns:xlink="http://www.w3.org/1999/xlink" contentScriptType="application/ecmascript" contentStyleType="text/css" height="764px" preserveAspectRatio="none" style="width:472px;height:764px;" version="1.1" viewBox="0 0 472 764" width="472px" zoomAndPan="magnify"><defs><filter height="300%" id="fnwbt7e6akgc9" width="300%" x="-1" y="-1"><feGaussianBlur result="blurOut" stdDeviation="2.0"/><feColorMatrix in="blurOut" result="blurOut2" type="matrix" values="0 0 0 0 0 0 0 0 0 0 0 0 0 0 0 0 0 0 .4 0"/><feOffset dx="4.0" dy="4.0" in="blurOut2" result="blurOut3"/><feBlend in="SourceGraphic" in2="blurOut3" mode="normal"/></filter></defs><g><text fill="#000000" font-family="sans-serif" font-size="18" lengthAdjust="spacing" textLength="234" x="112.7433" y="16.708">Bithoven - Class Diagram</text><!--MD5=[4afd06ced235b1069fb699db244bfb2f]
class Composer--><rect codeLine="7" fill="#FEFECE" filter="url(#fnwbt7e6akgc9)" height="60.8047" id="Composer" style="stroke:#A80036;stroke-width:1.5;" width="95" x="41.4869" y="676.4531"/><ellipse cx="56.4869" cy="692.4531" fill="#ADD1B2" rx="11" ry="11" style="stroke:#A80036;stroke-width:1.0;"/><path d="M58.8307,688.125 C57.8932,687.6875 57.2994,687.5469 56.4244,687.5469 C53.7994,687.5469 51.7994,689.625 51.7994,692.3438 L51.7994,693.4688 C51.7994,696.0469 53.9088,697.9375 56.7994,697.9375 C58.0182,697.9375 59.1744,697.6406 59.9244,697.0938 C60.5025,696.6875 60.8307,696.2344 60.8307,695.8438 C60.8307,695.3906 60.44,695 59.9713,695 C59.7525,695 59.5494,695.0781 59.3619,695.2656 C58.9088,695.75 58.9088,695.75 58.7213,695.8438 C58.2994,696.1094 57.6119,696.2344 56.8463,696.2344 C54.7994,696.2344 53.5025,695.1406 53.5025,693.4375 L53.5025,692.3438 C53.5025,690.5625 54.7525,689.25 56.4869,689.25 C57.065,689.25 57.6744,689.4063 58.1432,689.6563 C58.6275,689.9375 58.7994,690.1563 58.8932,690.5625 C58.9557,690.9688 58.9869,691.0938 59.1275,691.2188 C59.2682,691.3594 59.5025,691.4688 59.7213,691.4688 C59.9869,691.4688 60.2525,691.3281 60.4244,691.1094 C60.5338,690.9531 60.565,690.7656 60.565,690.3438 L60.565,688.9219 C60.565,688.4844 60.5494,688.3594 60.4557,688.2031 C60.2994,687.9375 60.0182,687.7969 59.7213,687.7969 C59.4244,687.7969 59.2213,687.8906 59.0025,688.2031 L58.8307,688.125 Z " fill="#000000"/><text fill="#000000" font-family="sans-serif" font-size="12" lengthAdjust="spacing" textLength="63" x="70.4869" y="696.6074">Composer</text><line style="stroke:#A80036;stroke-width:1.5;" x1="42.4869" x2="135.4869" y1="708.4531" y2="708.4531"/><ellipse cx="52.4869" cy="719.4531" rx="3" ry="3" style="stroke:#038048;stroke-width:1.0;fill:none;"/><text fill="#000000" font-family="sans-serif" font-size="11" lengthAdjust="spacing" textLength="34" x="61.4869" y="722.6636">Name</text><line style="stroke:#A80036;stroke-width:1.5;" x1="42.4869" x2="135.4869" y1="729.2578" y2="729.2578"/><!--MD5=[12cf8bd4149df430b12eb056ce938445]
class Performer--><rect codeLine="12" fill="#FEFECE" filter="url(#fnwbt7e6akgc9)" height="73.6094" id="Performer" style="stroke:#A80036;stroke-width:1.5;" width="115" x="203.4866" y="523.9531"/><ellipse cx="228.8366" cy="539.9531" fill="#ADD1B2" rx="11" ry="11" style="stroke:#A80036;stroke-width:1.0;"/><path d="M231.1804,535.625 C230.2429,535.1875 229.6491,535.0469 228.7741,535.0469 C226.1491,535.0469 224.1491,537.125 224.1491,539.8438 L224.1491,540.9688 C224.1491,543.5469 226.2585,545.4375 229.1491,545.4375 C230.3679,545.4375 231.5241,545.1406 232.2741,544.5938 C232.8522,544.1875 233.1804,543.7344 233.1804,543.3438 C233.1804,542.8906 232.7897,542.5 232.321,542.5 C232.1022,542.5 231.8991,542.5781 231.7116,542.7656 C231.2585,543.25 231.2585,543.25 231.071,543.3438 C230.6491,543.6094 229.9616,543.7344 229.196,543.7344 C227.1491,543.7344 225.8522,542.6406 225.8522,540.9375 L225.8522,539.8438 C225.8522,538.0625 227.1022,536.75 228.8366,536.75 C229.4147,536.75 230.0241,536.9063 230.4929,537.1563 C230.9772,537.4375 231.1491,537.6563 231.2429,538.0625 C231.3054,538.4688 231.3366,538.5938 231.4772,538.7188 C231.6179,538.8594 231.8522,538.9688 232.071,538.9688 C232.3366,538.9688 232.6022,538.8281 232.7741,538.6094 C232.8835,538.4531 232.9147,538.2656 232.9147,537.8438 L232.9147,536.4219 C232.9147,535.9844 232.8991,535.8594 232.8054,535.7031 C232.6491,535.4375 232.3679,535.2969 232.071,535.2969 C231.7741,535.2969 231.571,535.3906 231.3522,535.7031 L231.1804,535.625 Z " fill="#000000"/><text fill="#000000" font-family="sans-serif" font-size="12" lengthAdjust="spacing" textLength="60" x="245.1366" y="544.1074">Performer</text><line style="stroke:#A80036;stroke-width:1.5;" x1="204.4866" x2="317.4866" y1="555.9531" y2="555.9531"/><ellipse cx="214.4866" cy="566.9531" rx="3" ry="3" style="stroke:#038048;stroke-width:1.0;fill:none;"/><text fill="#000000" font-family="sans-serif" font-size="11" lengthAdjust="spacing" textLength="34" x="223.4866" y="570.1636">Name</text><ellipse cx="214.4866" cy="579.7578" rx="3" ry="3" style="stroke:#038048;stroke-width:1.0;fill:none;"/><text fill="#000000" font-family="sans-serif" font-size="11" lengthAdjust="spacing" textLength="89" x="223.4866" y="582.9683">Performer Type</text><line style="stroke:#A80036;stroke-width:1.5;" x1="204.4866" x2="317.4866" y1="589.5625" y2="589.5625"/><!--MD5=[4316358a5a6b918f654f73b55483e38c]
class PerformerType--><rect codeLine="17" fill="#FEFECE" filter="url(#fnwbt7e6akgc9)" height="86.4141" id="PerformerType" style="stroke:#A80036;stroke-width:1.5;" width="122" x="199.9866" y="663.9531"/><ellipse cx="214.9866" cy="679.9531" fill="#EB937F" rx="11" ry="11" style="stroke:#A80036;stroke-width:1.0;"/><path d="M213.7835,680.8281 L215.2366,680.8281 L215.2366,680.9375 C215.2366,681.3438 215.2679,681.5 215.346,681.6563 C215.5022,681.9063 215.7835,682.0625 216.0804,682.0625 C216.3304,682.0625 216.596,681.9219 216.7522,681.7031 C216.8772,681.5469 216.9085,681.3906 216.9085,680.9375 L216.9085,679.0156 C216.9085,678.8594 216.9085,678.8125 216.8929,678.6563 C216.8304,678.1875 216.5179,677.875 216.0647,677.875 C215.8147,677.875 215.5491,678.0156 215.3772,678.2344 C215.2679,678.4063 215.2366,678.5625 215.2366,679.0156 L215.2366,679.1406 L213.7835,679.1406 L213.7835,676.7344 L217.7679,676.7344 L217.7679,677.5938 C217.7679,678 217.7991,678.1719 217.8772,678.3281 C218.0491,678.5781 218.3304,678.7344 218.6116,678.7344 C218.8772,678.7344 219.1429,678.5938 219.3147,678.375 C219.4241,678.2031 219.4554,678.0625 219.4554,677.5938 L219.4554,675.0469 L211.8304,675.0469 C211.3929,675.0469 211.2679,675.0625 211.1116,675.1563 C210.8616,675.3125 210.7054,675.6094 210.7054,675.8906 C210.7054,676.1719 210.846,676.4219 211.0647,676.5938 C211.221,676.7031 211.4085,676.7344 211.8304,676.7344 L212.0804,676.7344 L212.0804,683.25 L211.8304,683.25 C211.4241,683.25 211.2679,683.2656 211.1116,683.375 C210.8616,683.5469 210.7054,683.8125 210.7054,684.1094 C210.7054,684.375 210.846,684.625 211.0647,684.7813 C211.2054,684.9063 211.4397,684.9531 211.8304,684.9531 L219.8304,684.9531 L219.8304,682.375 C219.8304,681.9375 219.7991,681.7969 219.721,681.6406 C219.5491,681.3906 219.2679,681.2344 218.9866,681.2344 C218.721,681.2344 218.4554,681.3438 218.2835,681.5938 C218.1741,681.75 218.1429,681.8906 218.1429,682.375 L218.1429,683.25 L213.7835,683.25 L213.7835,680.8281 Z " fill="#000000"/><text fill="#000000" font-family="sans-serif" font-size="12" lengthAdjust="spacing" textLength="90" x="228.9866" y="684.1074">PerformerType</text><line style="stroke:#A80036;stroke-width:1.5;" x1="200.9866" x2="320.9866" y1="695.9531" y2="695.9531"/><ellipse cx="210.9866" cy="706.9531" rx="3" ry="3" style="stroke:#038048;stroke-width:1.0;fill:none;"/><text fill="#000000" font-family="sans-serif" font-size="11" lengthAdjust="spacing" textLength="38" x="219.9866" y="710.1636">Soloist</text><ellipse cx="210.9866" cy="719.7578" rx="3" ry="3" style="stroke:#038048;stroke-width:1.0;fill:none;"/><text fill="#000000" font-family="sans-serif" font-size="11" lengthAdjust="spacing" textLength="57" x="219.9866" y="722.9683">Conductor</text><ellipse cx="210.9866" cy="732.5625" rx="3" ry="3" style="stroke:#038048;stroke-width:1.0;fill:none;"/><text fill="#000000" font-family="sans-serif" font-size="11" lengthAdjust="spacing" textLength="34" x="219.9866" y="735.7729">Group</text><line style="stroke:#A80036;stroke-width:1.5;" x1="200.9866" x2="320.9866" y1="742.3672" y2="742.3672"/><!--MD5=[e05bacf3ff4416a0580578814d41bbf6]
class Piece--><rect codeLine="24" fill="#FEFECE" filter="url(#fnwbt7e6akgc9)" height="73.6094" id="Piece" style="stroke:#A80036;stroke-width:1.5;" width="84" x="50.9869" y="523.9531"/><ellipse cx="74.9869" cy="539.9531" fill="#ADD1B2" rx="11" ry="11" style="stroke:#A80036;stroke-width:1.0;"/><path d="M77.3306,535.625 C76.3931,535.1875 75.7994,535.0469 74.9244,535.0469 C72.2994,535.0469 70.2994,537.125 70.2994,539.8438 L70.2994,540.9688 C70.2994,543.5469 72.4088,545.4375 75.2994,545.4375 C76.5181,545.4375 77.6744,545.1406 78.4244,544.5938 C79.0025,544.1875 79.3306,543.7344 79.3306,543.3438 C79.3306,542.8906 78.94,542.5 78.4713,542.5 C78.2525,542.5 78.0494,542.5781 77.8619,542.7656 C77.4088,543.25 77.4088,543.25 77.2213,543.3438 C76.7994,543.6094 76.1119,543.7344 75.3463,543.7344 C73.2994,543.7344 72.0025,542.6406 72.0025,540.9375 L72.0025,539.8438 C72.0025,538.0625 73.2525,536.75 74.9869,536.75 C75.565,536.75 76.1744,536.9063 76.6431,537.1563 C77.1275,537.4375 77.2994,537.6563 77.3931,538.0625 C77.4556,538.4688 77.4869,538.5938 77.6275,538.7188 C77.7681,538.8594 78.0025,538.9688 78.2213,538.9688 C78.4869,538.9688 78.7525,538.8281 78.9244,538.6094 C79.0338,538.4531 79.065,538.2656 79.065,537.8438 L79.065,536.4219 C79.065,535.9844 79.0494,535.8594 78.9556,535.7031 C78.7994,535.4375 78.5181,535.2969 78.2213,535.2969 C77.9244,535.2969 77.7213,535.3906 77.5025,535.7031 L77.3306,535.625 Z " fill="#000000"/><text fill="#000000" font-family="sans-serif" font-size="12" lengthAdjust="spacing" textLength="32" x="90.9869" y="544.1074">Piece</text><line style="stroke:#A80036;stroke-width:1.5;" x1="51.9869" x2="133.9869" y1="555.9531" y2="555.9531"/><ellipse cx="61.9869" cy="566.9531" rx="3" ry="3" style="stroke:#038048;stroke-width:1.0;fill:none;"/><text fill="#000000" font-family="sans-serif" font-size="11" lengthAdjust="spacing" textLength="58" x="70.9869" y="570.1636">Composer</text><ellipse cx="61.9869" cy="579.7578" rx="3" ry="3" style="stroke:#038048;stroke-width:1.0;fill:none;"/><text fill="#000000" font-family="sans-serif" font-size="11" lengthAdjust="spacing" textLength="34" x="70.9869" y="582.9683">Name</text><line style="stroke:#A80036;stroke-width:1.5;" x1="51.9869" x2="133.9869" y1="589.5625" y2="589.5625"/><!--MD5=[53e6cac2272ce2eb99d85cf2b2d574ee]
class Performance--><rect codeLine="30" fill="#FEFECE" filter="url(#fnwbt7e6akgc9)" height="112.0234" id="Performance" style="stroke:#A80036;stroke-width:1.5;" width="108" x="244.9866" y="345.9531"/><ellipse cx="259.9866" cy="361.9531" fill="#ADD1B2" rx="11" ry="11" style="stroke:#A80036;stroke-width:1.0;"/><path d="M262.3304,357.625 C261.3929,357.1875 260.7991,357.0469 259.9241,357.0469 C257.2991,357.0469 255.2991,359.125 255.2991,361.8438 L255.2991,362.9688 C255.2991,365.5469 257.4085,367.4375 260.2991,367.4375 C261.5179,367.4375 262.6741,367.1406 263.4241,366.5938 C264.0022,366.1875 264.3304,365.7344 264.3304,365.3438 C264.3304,364.8906 263.9397,364.5 263.471,364.5 C263.2522,364.5 263.0491,364.5781 262.8616,364.7656 C262.4085,365.25 262.4085,365.25 262.221,365.3438 C261.7991,365.6094 261.1116,365.7344 260.346,365.7344 C258.2991,365.7344 257.0022,364.6406 257.0022,362.9375 L257.0022,361.8438 C257.0022,360.0625 258.2522,358.75 259.9866,358.75 C260.5647,358.75 261.1741,358.9063 261.6429,359.1563 C262.1272,359.4375 262.2991,359.6563 262.3929,360.0625 C262.4554,360.4688 262.4866,360.5938 262.6272,360.7188 C262.7679,360.8594 263.0022,360.9688 263.221,360.9688 C263.4866,360.9688 263.7522,360.8281 263.9241,360.6094 C264.0335,360.4531 264.0647,360.2656 264.0647,359.8438 L264.0647,358.4219 C264.0647,357.9844 264.0491,357.8594 263.9554,357.7031 C263.7991,357.4375 263.5179,357.2969 263.221,357.2969 C262.9241,357.2969 262.721,357.3906 262.5022,357.7031 L262.3304,357.625 Z " fill="#000000"/><text fill="#000000" font-family="sans-serif" font-size="12" lengthAdjust="spacing" textLength="76" x="273.9866" y="366.1074">Performance</text><line style="stroke:#A80036;stroke-width:1.5;" x1="245.9866" x2="351.9866" y1="377.9531" y2="377.9531"/><ellipse cx="255.9866" cy="388.9531" rx="3" ry="3" style="stroke:#038048;stroke-width:1.0;fill:none;"/><text fill="#000000" font-family="sans-serif" font-size="11" lengthAdjust="spacing" textLength="31" x="264.9866" y="392.1636">Piece</text><ellipse cx="255.9866" cy="401.7578" rx="3" ry="3" style="stroke:#038048;stroke-width:1.0;fill:none;"/><text fill="#000000" font-family="sans-serif" font-size="11" lengthAdjust="spacing" textLength="62" x="264.9866" y="404.9683">Performers</text><ellipse cx="255.9866" cy="414.5625" rx="3" ry="3" style="stroke:#038048;stroke-width:1.0;fill:none;"/><text fill="#000000" font-family="sans-serif" font-size="11" lengthAdjust="spacing" textLength="49" x="264.9866" y="417.7729">Playtime</text><ellipse cx="255.9866" cy="427.3672" rx="3" ry="3" style="stroke:#038048;stroke-width:1.0;fill:none;"/><text fill="#000000" font-family="sans-serif" font-size="11" lengthAdjust="spacing" textLength="79" x="264.9866" y="430.5776">Release Date</text><ellipse cx="255.9866" cy="440.1719" rx="3" ry="3" style="stroke:#038048;stroke-width:1.0;fill:none;"/><text fill="#000000" font-family="sans-serif" font-size="11" lengthAdjust="spacing" textLength="21" x="264.9866" y="443.3823">URL</text><line style="stroke:#A80036;stroke-width:1.5;" x1="245.9866" x2="351.9866" y1="449.9766" y2="449.9766"/><!--MD5=[aad895420646349eb22500a89a83f413]
class ContentGroup--><rect codeLine="39" fill="#FEFECE" filter="url(#fnwbt7e6akgc9)" height="73.6094" id="ContentGroup" style="stroke:#A80036;stroke-width:1.5;" width="115" x="94.4869" y="364.9531"/><ellipse cx="109.4869" cy="380.9531" fill="#ADD1B2" rx="11" ry="11" style="stroke:#A80036;stroke-width:1.0;"/><path d="M111.8307,376.625 C110.8932,376.1875 110.2994,376.0469 109.4244,376.0469 C106.7994,376.0469 104.7994,378.125 104.7994,380.8438 L104.7994,381.9688 C104.7994,384.5469 106.9088,386.4375 109.7994,386.4375 C111.0182,386.4375 112.1744,386.1406 112.9244,385.5938 C113.5025,385.1875 113.8307,384.7344 113.8307,384.3438 C113.8307,383.8906 113.44,383.5 112.9713,383.5 C112.7525,383.5 112.5494,383.5781 112.3619,383.7656 C111.9088,384.25 111.9088,384.25 111.7213,384.3438 C111.2994,384.6094 110.6119,384.7344 109.8463,384.7344 C107.7994,384.7344 106.5025,383.6406 106.5025,381.9375 L106.5025,380.8438 C106.5025,379.0625 107.7525,377.75 109.4869,377.75 C110.065,377.75 110.6744,377.9063 111.1432,378.1563 C111.6275,378.4375 111.7994,378.6563 111.8932,379.0625 C111.9557,379.4688 111.9869,379.5938 112.1275,379.7188 C112.2682,379.8594 112.5025,379.9688 112.7213,379.9688 C112.9869,379.9688 113.2525,379.8281 113.4244,379.6094 C113.5338,379.4531 113.565,379.2656 113.565,378.8438 L113.565,377.4219 C113.565,376.9844 113.5494,376.8594 113.4557,376.7031 C113.2994,376.4375 113.0182,376.2969 112.7213,376.2969 C112.4244,376.2969 112.2213,376.3906 112.0025,376.7031 L111.8307,376.625 Z " fill="#000000"/><text fill="#000000" font-family="sans-serif" font-size="12" lengthAdjust="spacing" textLength="83" x="123.4869" y="385.1074">ContentGroup</text><line style="stroke:#A80036;stroke-width:1.5;" x1="95.4869" x2="208.4869" y1="396.9531" y2="396.9531"/><ellipse cx="105.4869" cy="407.9531" rx="3" ry="3" style="stroke:#038048;stroke-width:1.0;fill:none;"/><text fill="#000000" font-family="sans-serif" font-size="11" lengthAdjust="spacing" textLength="37" x="114.4869" y="411.1636">Pieces</text><ellipse cx="105.4869" cy="420.7578" rx="3" ry="3" style="stroke:#038048;stroke-width:1.0;fill:none;"/><text fill="#000000" font-family="sans-serif" font-size="11" lengthAdjust="spacing" textLength="34" x="114.4869" y="423.9683">Name</text><line style="stroke:#A80036;stroke-width:1.5;" x1="95.4869" x2="208.4869" y1="430.5625" y2="430.5625"/><!--MD5=[7560274dc4d8b0cfc2c0496e7291d5fc]
class Album--><rect codeLine="45" fill="#FEFECE" filter="url(#fnwbt7e6akgc9)" height="86.4141" id="Album" style="stroke:#A80036;stroke-width:1.5;" width="105" x="353.4866" y="517.9531"/><ellipse cx="384.6866" cy="533.9531" fill="#ADD1B2" rx="11" ry="11" style="stroke:#A80036;stroke-width:1.0;"/><path d="M387.0303,529.625 C386.0928,529.1875 385.4991,529.0469 384.6241,529.0469 C381.9991,529.0469 379.9991,531.125 379.9991,533.8438 L379.9991,534.9688 C379.9991,537.5469 382.1085,539.4375 384.9991,539.4375 C386.2178,539.4375 387.3741,539.1406 388.1241,538.5938 C388.7022,538.1875 389.0303,537.7344 389.0303,537.3438 C389.0303,536.8906 388.6397,536.5 388.171,536.5 C387.9522,536.5 387.7491,536.5781 387.5616,536.7656 C387.1085,537.25 387.1085,537.25 386.921,537.3438 C386.4991,537.6094 385.8116,537.7344 385.046,537.7344 C382.9991,537.7344 381.7022,536.6406 381.7022,534.9375 L381.7022,533.8438 C381.7022,532.0625 382.9522,530.75 384.6866,530.75 C385.2647,530.75 385.8741,530.9063 386.3428,531.1563 C386.8272,531.4375 386.9991,531.6563 387.0928,532.0625 C387.1553,532.4688 387.1866,532.5938 387.3272,532.7188 C387.4678,532.8594 387.7022,532.9688 387.921,532.9688 C388.1866,532.9688 388.4522,532.8281 388.6241,532.6094 C388.7335,532.4531 388.7647,532.2656 388.7647,531.8438 L388.7647,530.4219 C388.7647,529.9844 388.7491,529.8594 388.6553,529.7031 C388.4991,529.4375 388.2178,529.2969 387.921,529.2969 C387.6241,529.2969 387.421,529.3906 387.2022,529.7031 L387.0303,529.625 Z " fill="#000000"/><text fill="#000000" font-family="sans-serif" font-size="12" lengthAdjust="spacing" textLength="37" x="402.2866" y="538.1074">Album</text><line style="stroke:#A80036;stroke-width:1.5;" x1="354.4866" x2="457.4866" y1="549.9531" y2="549.9531"/><ellipse cx="364.4866" cy="560.9531" rx="3" ry="3" style="stroke:#038048;stroke-width:1.0;fill:none;"/><text fill="#000000" font-family="sans-serif" font-size="11" lengthAdjust="spacing" textLength="78" x="373.4866" y="564.1636">Performances</text><ellipse cx="364.4866" cy="573.7578" rx="3" ry="3" style="stroke:#038048;stroke-width:1.0;fill:none;"/><text fill="#000000" font-family="sans-serif" font-size="11" lengthAdjust="spacing" textLength="34" x="373.4866" y="576.9683">Name</text><ellipse cx="364.4866" cy="586.5625" rx="3" ry="3" style="stroke:#038048;stroke-width:1.0;fill:none;"/><text fill="#000000" font-family="sans-serif" font-size="11" lengthAdjust="spacing" textLength="79" x="373.4866" y="589.7729">Release Date</text><line style="stroke:#A80036;stroke-width:1.5;" x1="354.4866" x2="457.4866" y1="596.3672" y2="596.3672"/><!--MD5=[2ce409087c256806e794369f9639a134]
class Playlist--><rect codeLine="52" fill="#FEFECE" filter="url(#fnwbt7e6akgc9)" height="73.6094" id="Playlist" style="stroke:#A80036;stroke-width:1.5;" width="104" x="246.9866" y="192.9531"/><ellipse cx="276.3866" cy="208.9531" fill="#ADD1B2" rx="11" ry="11" style="stroke:#A80036;stroke-width:1.0;"/><path d="M278.7304,204.625 C277.7929,204.1875 277.1991,204.0469 276.3241,204.0469 C273.6991,204.0469 271.6991,206.125 271.6991,208.8438 L271.6991,209.9688 C271.6991,212.5469 273.8085,214.4375 276.6991,214.4375 C277.9179,214.4375 279.0741,214.1406 279.8241,213.5938 C280.4022,213.1875 280.7304,212.7344 280.7304,212.3438 C280.7304,211.8906 280.3397,211.5 279.871,211.5 C279.6522,211.5 279.4491,211.5781 279.2616,211.7656 C278.8085,212.25 278.8085,212.25 278.621,212.3438 C278.1991,212.6094 277.5116,212.7344 276.746,212.7344 C274.6991,212.7344 273.4022,211.6406 273.4022,209.9375 L273.4022,208.8438 C273.4022,207.0625 274.6522,205.75 276.3866,205.75 C276.9647,205.75 277.5741,205.9063 278.0429,206.1563 C278.5272,206.4375 278.6991,206.6563 278.7929,207.0625 C278.8554,207.4688 278.8866,207.5938 279.0272,207.7188 C279.1679,207.8594 279.4022,207.9688 279.621,207.9688 C279.8866,207.9688 280.1522,207.8281 280.3241,207.6094 C280.4335,207.4531 280.4647,207.2656 280.4647,206.8438 L280.4647,205.4219 C280.4647,204.9844 280.4491,204.8594 280.3554,204.7031 C280.1991,204.4375 279.9179,204.2969 279.621,204.2969 C279.3241,204.2969 279.121,204.3906 278.9022,204.7031 L278.7304,204.625 Z " fill="#000000"/><text fill="#000000" font-family="sans-serif" font-size="12" lengthAdjust="spacing" textLength="40" x="293.5866" y="213.1074">Playlist</text><line style="stroke:#A80036;stroke-width:1.5;" x1="247.9866" x2="349.9866" y1="224.9531" y2="224.9531"/><ellipse cx="257.9866" cy="235.9531" rx="3" ry="3" style="stroke:#038048;stroke-width:1.0;fill:none;"/><text fill="#000000" font-family="sans-serif" font-size="11" lengthAdjust="spacing" textLength="78" x="266.9866" y="239.1636">Performances</text><ellipse cx="257.9866" cy="248.7578" rx="3" ry="3" style="stroke:#038048;stroke-width:1.0;fill:none;"/><text fill="#000000" font-family="sans-serif" font-size="11" lengthAdjust="spacing" textLength="25" x="266.9866" y="251.9683">Title</text><line style="stroke:#A80036;stroke-width:1.5;" x1="247.9866" x2="349.9866" y1="258.5625" y2="258.5625"/><!--MD5=[3fd616f346a44cd59a91eb10b19e157c]
class User--><rect codeLine="58" fill="#FEFECE" filter="url(#fnwbt7e6akgc9)" height="86.4141" id="User" style="stroke:#A80036;stroke-width:1.5;" width="78" x="259.9866" y="27.9531"/><ellipse cx="282.6366" cy="43.9531" fill="#ADD1B2" rx="11" ry="11" style="stroke:#A80036;stroke-width:1.0;"/><path d="M284.9804,39.625 C284.0429,39.1875 283.4491,39.0469 282.5741,39.0469 C279.9491,39.0469 277.9491,41.125 277.9491,43.8438 L277.9491,44.9688 C277.9491,47.5469 280.0585,49.4375 282.9491,49.4375 C284.1679,49.4375 285.3241,49.1406 286.0741,48.5938 C286.6522,48.1875 286.9804,47.7344 286.9804,47.3438 C286.9804,46.8906 286.5897,46.5 286.121,46.5 C285.9022,46.5 285.6991,46.5781 285.5116,46.7656 C285.0585,47.25 285.0585,47.25 284.871,47.3438 C284.4491,47.6094 283.7616,47.7344 282.996,47.7344 C280.9491,47.7344 279.6522,46.6406 279.6522,44.9375 L279.6522,43.8438 C279.6522,42.0625 280.9022,40.75 282.6366,40.75 C283.2147,40.75 283.8241,40.9063 284.2929,41.1563 C284.7772,41.4375 284.9491,41.6563 285.0429,42.0625 C285.1054,42.4688 285.1366,42.5938 285.2772,42.7188 C285.4179,42.8594 285.6522,42.9688 285.871,42.9688 C286.1366,42.9688 286.4022,42.8281 286.5741,42.6094 C286.6835,42.4531 286.7147,42.2656 286.7147,41.8438 L286.7147,40.4219 C286.7147,39.9844 286.6991,39.8594 286.6054,39.7031 C286.4491,39.4375 286.1679,39.2969 285.871,39.2969 C285.5741,39.2969 285.371,39.3906 285.1522,39.7031 L284.9804,39.625 Z " fill="#000000"/><text fill="#000000" font-family="sans-serif" font-size="12" lengthAdjust="spacing" textLength="29" x="298.3366" y="48.1074">User</text><line style="stroke:#A80036;stroke-width:1.5;" x1="260.9866" x2="336.9866" y1="59.9531" y2="59.9531"/><ellipse cx="270.9866" cy="70.9531" rx="3" ry="3" style="stroke:#038048;stroke-width:1.0;fill:none;"/><text fill="#000000" font-family="sans-serif" font-size="11" lengthAdjust="spacing" textLength="31" x="279.9866" y="74.1636">Email</text><ellipse cx="270.9866" cy="83.7578" rx="3" ry="3" style="stroke:#038048;stroke-width:1.0;fill:none;"/><text fill="#000000" font-family="sans-serif" font-size="11" lengthAdjust="spacing" textLength="52" x="279.9866" y="86.9683">Password</text><ellipse cx="270.9866" cy="96.5625" rx="3" ry="3" style="stroke:#038048;stroke-width:1.0;fill:none;"/><text fill="#000000" font-family="sans-serif" font-size="11" lengthAdjust="spacing" textLength="45" x="279.9866" y="99.7729">Playlists</text><line style="stroke:#A80036;stroke-width:1.5;" x1="260.9866" x2="336.9866" y1="106.3672" y2="106.3672"/><!--MD5=[0653f8dae23042bd6dde0eb89a530340]
class SearchResult--><rect codeLine="64" fill="#FEFECE" filter="url(#fnwbt7e6akgc9)" height="112.0234" id="SearchResult" style="stroke:#A80036;stroke-width:1.5;" width="110" x="43.9869" y="173.9531"/><ellipse cx="58.9869" cy="189.9531" fill="#ADD1B2" rx="11" ry="11" style="stroke:#A80036;stroke-width:1.0;"/><path d="M61.3307,185.625 C60.3932,185.1875 59.7994,185.0469 58.9244,185.0469 C56.2994,185.0469 54.2994,187.125 54.2994,189.8438 L54.2994,190.9688 C54.2994,193.5469 56.4088,195.4375 59.2994,195.4375 C60.5182,195.4375 61.6744,195.1406 62.4244,194.5938 C63.0025,194.1875 63.3307,193.7344 63.3307,193.3438 C63.3307,192.8906 62.94,192.5 62.4713,192.5 C62.2525,192.5 62.0494,192.5781 61.8619,192.7656 C61.4088,193.25 61.4088,193.25 61.2213,193.3438 C60.7994,193.6094 60.1119,193.7344 59.3463,193.7344 C57.2994,193.7344 56.0025,192.6406 56.0025,190.9375 L56.0025,189.8438 C56.0025,188.0625 57.2525,186.75 58.9869,186.75 C59.565,186.75 60.1744,186.9063 60.6432,187.1563 C61.1275,187.4375 61.2994,187.6563 61.3932,188.0625 C61.4557,188.4688 61.4869,188.5938 61.6275,188.7188 C61.7682,188.8594 62.0025,188.9688 62.2213,188.9688 C62.4869,188.9688 62.7525,188.8281 62.9244,188.6094 C63.0338,188.4531 63.065,188.2656 63.065,187.8438 L63.065,186.4219 C63.065,185.9844 63.0494,185.8594 62.9557,185.7031 C62.7994,185.4375 62.5182,185.2969 62.2213,185.2969 C61.9244,185.2969 61.7213,185.3906 61.5025,185.7031 L61.3307,185.625 Z " fill="#000000"/><text fill="#000000" font-family="sans-serif" font-size="12" lengthAdjust="spacing" textLength="78" x="72.9869" y="194.1074">SearchResult</text><line style="stroke:#A80036;stroke-width:1.5;" x1="44.9869" x2="152.9869" y1="205.9531" y2="205.9531"/><ellipse cx="54.9869" cy="216.9531" rx="3" ry="3" style="stroke:#038048;stroke-width:1.0;fill:none;"/><text fill="#000000" font-family="sans-serif" font-size="11" lengthAdjust="spacing" textLength="35" x="63.9869" y="220.1636">Query</text><ellipse cx="54.9869" cy="229.7578" rx="3" ry="3" style="stroke:#038048;stroke-width:1.0;fill:none;"/><text fill="#000000" font-family="sans-serif" font-size="11" lengthAdjust="spacing" textLength="42" x="63.9869" y="232.9683">Albums</text><ellipse cx="54.9869" cy="242.5625" rx="3" ry="3" style="stroke:#038048;stroke-width:1.0;fill:none;"/><text fill="#000000" font-family="sans-serif" font-size="11" lengthAdjust="spacing" textLength="64" x="63.9869" y="245.7729">Composers</text><ellipse cx="54.9869" cy="255.3672" rx="3" ry="3" style="stroke:#038048;stroke-width:1.0;fill:none;"/><text fill="#000000" font-family="sans-serif" font-size="11" lengthAdjust="spacing" textLength="78" x="63.9869" y="258.5776">Performances</text><ellipse cx="54.9869" cy="268.1719" rx="3" ry="3" style="stroke:#038048;stroke-width:1.0;fill:none;"/><text fill="#000000" font-family="sans-serif" font-size="11" lengthAdjust="spacing" textLength="37" x="63.9869" y="271.3823">Pieces</text><line style="stroke:#A80036;stroke-width:1.5;" x1="44.9869" x2="152.9869" y1="277.9766" y2="277.9766"/><!--MD5=[afb10284fcda7fee3e8920a712740c16]
reverse link SearchResult to Album--><path codeLine="73" d="M166.0816,259.3681 C246.2656,293.3341 369.7726,345.6821 369.9866,345.9531 C408.8456,395.1961 412.3856,470.9081 410.1116,517.8291 " fill="none" id="SearchResult-backto-Album" style="stroke:#A80036;stroke-width:1.0;"/><polygon fill="#A80036" points="154.0976,254.2921,158.0624,260.3155,165.1473,258.9723,161.1825,252.949,154.0976,254.2921" style="stroke:#A80036;stroke-width:1.0;"/><text fill="#000000" font-family="sans-serif" font-size="13" lengthAdjust="spacing" textLength="23" x="161.7995" y="253.3124">0..*</text><text fill="#000000" font-family="sans-serif" font-size="13" lengthAdjust="spacing" textLength="23" x="385.9362" y="506.8054">0..*</text><!--MD5=[584eb40860a116a6fdd947a0b36dae63]
reverse link SearchResult to Composer--><path codeLine="74" d="M69.7788,298.7321 C41.3237,373.9841 6,498.7221 32.9869,603.9531 C39.7116,630.1751 54.7396,656.8923 67.536,676.4022 " fill="none" id="SearchResult-backto-Composer" style="stroke:#A80036;stroke-width:1.0;"/><polygon fill="#A80036" points="74.635,286.1821,68.7393,290.3343,70.3045,297.3735,76.2002,293.2213,74.635,286.1821" style="stroke:#A80036;stroke-width:1.0;"/><text fill="#000000" font-family="sans-serif" font-size="13" lengthAdjust="spacing" textLength="23" x="47.2655" y="306.0227">0..*</text><text fill="#000000" font-family="sans-serif" font-size="13" lengthAdjust="spacing" textLength="23" x="37.328" y="665.1814">0..*</text><!--MD5=[0ead4890d7009991dca43ec0be26d06e]
reverse link SearchResult to Performance--><path codeLine="75" d="M164.3136,286.4801 C190.3136,308.5811 219.8836,333.7151 244.6786,354.7911 " fill="none" id="SearchResult-backto-Performance" style="stroke:#A80036;stroke-width:1.0;"/><polygon fill="#A80036" points="154.1676,277.8561,156.1486,284.7898,163.3108,285.628,161.3298,278.6943,154.1676,277.8561" style="stroke:#A80036;stroke-width:1.0;"/><text fill="#000000" font-family="sans-serif" font-size="13" lengthAdjust="spacing" textLength="23" x="161.8776" y="279.6009">0..*</text><text fill="#000000" font-family="sans-serif" font-size="13" lengthAdjust="spacing" textLength="23" x="214.0696" y="345.544">0..*</text><!--MD5=[1b28b13e4434258a9724bcf60f03a3f9]
reverse link SearchResult to Piece--><path codeLine="76" d="M83.7055,299.3491 C80.9112,314.6101 78.4261,330.7711 76.9869,345.9531 C72.2894,395.5091 73.1182,408.3261 76.9869,457.9531 C78.7004,479.9341 82.4609,504.3391 85.9059,523.7651 " fill="none" id="SearchResult-backto-Piece" style="stroke:#A80036;stroke-width:1.0;"/><polygon fill="#A80036" points="86.2223,286.2171,81.1644,291.3569,83.9634,298.0026,89.0214,292.8628,86.2223,286.2171" style="stroke:#A80036;stroke-width:1.0;"/><text fill="#000000" font-family="sans-serif" font-size="13" lengthAdjust="spacing" textLength="23" x="86.0682" y="306.0619">0..*</text><text fill="#000000" font-family="sans-serif" font-size="13" lengthAdjust="spacing" textLength="23" x="59.5962" y="512.9186">0..*</text><!--MD5=[eeb9254279c598d37ba2e3410a349fc2]
reverse link User to Playlist--><path codeLine="78" d="M298.9866,127.1941 C298.9866,148.9991 298.9866,173.4351 298.9866,192.8961 " fill="none" id="User-backto-Playlist" style="stroke:#A80036;stroke-width:1.0;"/><polygon fill="#FFFFFF" points="298.9866,114.0261,294.9866,120.0261,298.9866,126.0261,302.9866,120.0261,298.9866,114.0261" style="stroke:#A80036;stroke-width:1.0;"/><text fill="#000000" font-family="sans-serif" font-size="13" lengthAdjust="spacing" textLength="8" x="290.3241" y="134.4459">1</text><text fill="#000000" font-family="sans-serif" font-size="13" lengthAdjust="spacing" textLength="23" x="273.8663" y="181.7961">0..*</text><!--MD5=[10f0d72a97aa39aac9f3af1aa89645a5]
reverse link Playlist to Performance--><path codeLine="79" d="M298.9866,280.2771 C298.9866,300.8181 298.9866,324.7551 298.9866,345.8691 " fill="none" id="Playlist-backto-Performance" style="stroke:#A80036;stroke-width:1.0;"/><polygon fill="#A80036" points="298.9866,267.0061,294.9866,273.0061,298.9866,279.0061,302.9866,273.0061,298.9866,267.0061" style="stroke:#A80036;stroke-width:1.0;"/><text fill="#000000" font-family="sans-serif" font-size="13" lengthAdjust="spacing" textLength="7" x="291.4069" y="286.4955">*</text><text fill="#000000" font-family="sans-serif" font-size="13" lengthAdjust="spacing" textLength="7" x="291.5382" y="334.7963">*</text><!--MD5=[beb4341828ffe4fd407bd314b540b0b6]
reverse link ContentGroup to Piece--><path codeLine="80" d="M133.7596,451.4561 C124.9816,474.8151 114.6353,502.3461 106.5617,523.8301 " fill="none" id="ContentGroup-backto-Piece" style="stroke:#A80036;stroke-width:1.0;"/><polygon fill="#A80036" points="138.4516,438.9721,132.5963,443.1812,134.2296,450.2049,140.0848,445.9958,138.4516,438.9721" style="stroke:#A80036;stroke-width:1.0;"/><text fill="#000000" font-family="sans-serif" font-size="13" lengthAdjust="spacing" textLength="24" x="110.0621" y="458.7357">0..1</text><text fill="#000000" font-family="sans-serif" font-size="13" lengthAdjust="spacing" textLength="23" x="111.0281" y="512.9952">1..*</text><!--MD5=[735d2abcaf2621ffe730d1857d0875b7]
reverse link Piece to Composer--><path codeLine="81" d="M91.616,611.3041 C91.0143,632.9651 90.328,657.6725 89.8075,676.4106 " fill="none" id="Piece-backto-Composer" style="stroke:#A80036;stroke-width:1.0;"/><polygon fill="#FFFFFF" points="91.9775,598.2901,87.8122,604.1766,91.6439,610.2855,95.8091,604.399,91.9775,598.2901" style="stroke:#A80036;stroke-width:1.0;"/><text fill="#000000" font-family="sans-serif" font-size="13" lengthAdjust="spacing" textLength="23" x="66.9838" y="617.5446">1..*</text><text fill="#000000" font-family="sans-serif" font-size="13" lengthAdjust="spacing" textLength="23" x="92.5026" y="665.1916">1..*</text><!--MD5=[99b8e51152c27f8d2c99a481c820d9a7]
reverse link Performance to Piece--><path codeLine="82" d="M234.3856,452.3101 C231.8876,454.2161 229.4146,456.1021 226.9866,457.9531 C196.2986,481.3541 161.6306,507.7421 135.2466,527.8141 " fill="none" id="Performance-backto-Piece" style="stroke:#A80036;stroke-width:1.0;"/><polygon fill="#A80036" points="244.7406,444.4071,237.5442,444.8669,235.2007,451.6866,242.3972,451.2268,244.7406,444.4071" style="stroke:#A80036;stroke-width:1.0;"/><text fill="#000000" font-family="sans-serif" font-size="13" lengthAdjust="spacing" textLength="23" x="217.4761" y="447.301">1..*</text><text fill="#000000" font-family="sans-serif" font-size="13" lengthAdjust="spacing" textLength="8" x="142.9084" y="518.1935">1</text><!--MD5=[9672ec486d8f48514022989afebce531]
reverse link Performance to Performer--><path codeLine="83" d="M282.5146,471.0091 C278.1236,489.1511 273.5496,508.0501 269.7526,523.7381 " fill="none" id="Performance-backto-Performer" style="stroke:#A80036;stroke-width:1.0;"/><polygon fill="#A80036" points="285.5896,458.3051,280.2903,463.1957,282.7664,469.9683,288.0657,465.0778,285.5896,458.3051" style="stroke:#A80036;stroke-width:1.0;"/><text fill="#000000" font-family="sans-serif" font-size="13" lengthAdjust="spacing" textLength="23" x="259.5553" y="478.1606">1..*</text><text fill="#000000" font-family="sans-serif" font-size="13" lengthAdjust="spacing" textLength="23" x="246.2656" y="512.8868">1..*</text><!--MD5=[b60de011fa94129912bf48314286e3e2]
reverse link Performer to PerformerType--><path codeLine="84" d="M260.9866,611.4581 C260.9866,628.4801 260.9866,647.3661 260.9866,663.7516 " fill="none" id="Performer-backto-PerformerType" style="stroke:#A80036;stroke-width:1.0;"/><polygon fill="#A80036" points="260.9866,598.2901,256.9866,604.2901,260.9866,610.2901,264.9866,604.2901,260.9866,598.2901" style="stroke:#A80036;stroke-width:1.0;"/><text fill="#000000" font-family="sans-serif" font-size="13" lengthAdjust="spacing" textLength="23" x="236.1538" y="617.5446">1..*</text><text fill="#000000" font-family="sans-serif" font-size="13" lengthAdjust="spacing" textLength="8" x="252.3741" y="653.0339">1</text><!--MD5=[b1c263204b66571a1382042e8d4d9543]
link Performance to Album--><path codeLine="85" d="M336.7106,458.3051 C347.4596,474.0761 359.1406,491.2161 369.7956,506.8501 " fill="none" id="Performance-to-Album" style="stroke:#A80036;stroke-width:1.0;"/><polygon fill="#A80036" points="377.3446,517.9271,377.271,510.7164,370.5866,508.011,370.6602,515.2217,377.3446,517.9271" style="stroke:#A80036;stroke-width:1.0;"/><text fill="#000000" font-family="sans-serif" font-size="13" lengthAdjust="spacing" textLength="23" x="316.9067" y="478.1606">1..*</text><text fill="#000000" font-family="sans-serif" font-size="13" lengthAdjust="spacing" textLength="24" x="346.8673" y="506.919">0..1</text><!--MD5=[00960fce01352ce3eb46fd6b907b0b23]
@startuml
title Bithoven - Class Diagram





class Composer {
    +Name
}


class Performer {
    +Name
    +Performer Type
}

enum PerformerType {
    +Soloist
    +Conductor
    +Group
}


class Piece {
    +Composer
    +Name
}


class Performance {
    +Piece
    +Performers
    +Playtime
    +Release Date
    +URL
}


class ContentGroup {
    +Pieces
    +Name
}


class Album {
    +Performances
    +Name
    +Release Date
}


class Playlist {
    +Performances
    +Title
}


class User {
    +Email
    +Password
    +Playlists
}

class SearchResult {
    +Query
    +Albums
    +Composers
    +Performances
    +Pieces
}


SearchResult "0..*" *- - "0..*" Album
SearchResult "0..*" *- - "0..*" Composer
SearchResult "0..*" *- - "0..*" Performance
SearchResult "0..*" *- - "0..*" Piece

User "1" o- - "0..*" Playlist
Playlist "*" *- - "*" Performance
ContentGroup "0..1" *- - "1..*" Piece
Piece "1..*" o- - "1..*" Composer
Performance "1..*" *- - "1" Piece
Performance "1..*" *- - "1..*" Performer
Performer "1..*" *- - "1" PerformerType
Performance "1..*" - -* "0..1" Album
@enduml

PlantUML version 1.2021.6beta4(Unknown compile time)
(GPL source distribution)
Java Runtime: Java(TM) SE Runtime Environment
JVM: Java HotSpot(TM) 64-Bit Server VM
Default Encoding: UTF-8
Language: en
Country: US
--></g></svg>